<?xml version="1.0" encoding="utf-8"?>
<!-- Generator: Adobe Illustrator 21.0.1, SVG Export Plug-In . SVG Version: 6.00 Build 0)  -->
<svg version="1.1" id="Слой_1" xmlns="http://www.w3.org/2000/svg" xmlns:xlink="http://www.w3.org/1999/xlink" x="0px" y="0px"
	 viewBox="0 0 190 170" style="enable-background:new 0 0 190 170;" xml:space="preserve">
<style type="text/css">
	.st0{fill:#787878;}
	.st1{fill:#9E9E9E;}
	.st2{display:none;}
</style>
<g id="Categories">
	<g id="Block">
		<path id="MainBlock" class="st0" d="M183,170H7c-3.9,0-7-3.2-7-7V7c0-3.9,3.2-7,7-7H183c3.9,0,7,3.2,7,7V163
			C190,166.8,186.8,170,183,170z"/>
		<g id="Lines_1_">
			<path class="st1" d="M175,23H15c-2.8,0-5-2.3-5-5v-3c0-2.8,2.3-5,5-5h160c2.8,0,5,2.3,5,5v3C180,20.8,177.8,23,175,23z"/>
			<path class="st1" d="M175,46H15c-2.8,0-5-2.3-5-5v-3c0-2.8,2.3-5,5-5h160c2.8,0,5,2.3,5,5v3C180,43.8,177.8,46,175,46z"/>
			<path class="st1" d="M175,69H15c-2.8,0-5-2.3-5-5v-3c0-2.8,2.3-5,5-5h160c2.8,0,5,2.3,5,5v3C180,66.8,177.8,69,175,69z"/>
		</g>
		<g id="Box">
			<path class="st1" d="M175,160H15c-2.8,0-5-2.3-5-5V84c0-2.8,2.3-5,5-5h160c2.8,0,5,2.3,5,5v71C180,157.8,177.8,160,175,160z"/>
			<path class="st0" d="M164,150H81c-3.3,0-6-2.7-6-6V95c0-3.3,2.7-6,6-6H164c3.3,0,6,2.7,6,6V144C170,147.3,167.3,150,164,150z"/>
		</g>
	</g>
	<g id="Lines" class="st2">
	</g>
</g>
</svg>
