<?xml version="1.0" encoding="utf-8"?>
<!-- Generator: Adobe Illustrator 21.0.1, SVG Export Plug-In . SVG Version: 6.00 Build 0)  -->
<svg version="1.1" id="Слой_1" xmlns="http://www.w3.org/2000/svg" xmlns:xlink="http://www.w3.org/1999/xlink" x="0px" y="0px"
	 viewBox="0 0 190 170" style="enable-background:new 0 0 190 170;" xml:space="preserve">
<style type="text/css">
	.st0{display:none;}
	.st1{fill:#787878;}
	.st2{fill:#9E9E9E;}
</style>
<g id="Home">
	<g id="Lines_3_" class="st0">
	</g>
	<g id="Block_2_">
		<path id="MainBlock_2_" class="st1" d="M183,170H7c-3.9,0-7-3.2-7-7V7c0-3.9,3.2-7,7-7H183c3.9,0,7,3.2,7,7V163
			C190,166.8,186.8,170,183,170z"/>
		<g id="House">
			<rect x="60.8" y="52.2" class="st2" width="68.4" height="67.3"/>
			<path class="st2" d="M140.7,150.2H112V88.7h28.6c3.2,0,5.7,2.6,5.7,5.7v50C146.4,147.6,143.8,150.2,140.7,150.2z"/>
			<path class="st1" d="M112,150.2H77.7V98.6c0-3.2,2.6-5.7,5.7-5.7h22.9c3.2,0,5.7,2.6,5.7,5.7V150.2z"/>
			<path class="st2" d="M175.4,106.5l-16.2,16.2c-2.2,2.2-5.9,2.2-8.1,0L74.6,46.2c-2.2-2.2-2.2-5.9,0-8.1l16.2-16.2
				c2.2-2.2,5.9-2.2,8.1,0l76.5,76.5C177.6,100.6,177.6,104.2,175.4,106.5z"/>
			<path class="st2" d="M49.3,150.2H78V88.7H49.3c-3.2,0-5.7,2.6-5.7,5.7v50C43.6,147.6,46.2,150.2,49.3,150.2z"/>
			<path class="st2" d="M14.6,106.5l16.2,16.2c2.2,2.2,5.9,2.2,8.1,0l76.5-76.5c2.2-2.2,2.2-5.9,0-8.1L99.2,21.9
				c-2.2-2.2-5.9-2.2-8.1,0L14.6,98.4C12.4,100.6,12.4,104.2,14.6,106.5z"/>
		</g>
	</g>
</g>
</svg>
